<?xml version="1.0" encoding="utf-8"?>
<!-- Generator: Adobe Illustrator 16.0.0, SVG Export Plug-In . SVG Version: 6.00 Build 0)  -->
<!DOCTYPE svg PUBLIC "-//W3C//DTD SVG 1.1//EN" "http://www.w3.org/Graphics/SVG/1.1/DTD/svg11.dtd">
<svg version="1.1" id="Layer_1" xmlns="http://www.w3.org/2000/svg" xmlns:xlink="http://www.w3.org/1999/xlink" x="0px" y="0px"
	 width="800px" height="800px" viewBox="0 0 600 600" enable-background="new 0 0 800 800" xml:space="preserve">

<g style="transform: translateX(-310px) translateY(-170px);">
	<g>
		<linearGradient id="SVGID_1_" gradientUnits="userSpaceOnUse" x1="780.7817" y1="752.9165" x2="1000.7983" y2="752.9165" gradientTransform="matrix(0 -1 1 -0.2586 -87.6958 1608.5773)">
			<stop  offset="0" style="stop-color:#D7D3D5"/>
			<stop  offset="0.9951" style="stop-color:#3D4458"/>
		</linearGradient>
		<path fill="url(#SVGID_1_)" d="M747.358,610.603c23.893-4.216,50.633-10.699,56.131-19.198
			c10.357-16.007,0.346-20.018-62.133-43.16c-98.402-36.437-79.424-78.427-57.678-101.258c21.754-22.826-52.068-25.221-52.068-25.221
			l-108.196,69.84l19.899,89.497l36.982,24.49l69.045,5.805C649.34,611.398,726.204,614.334,747.358,610.603z"/>
		
			<linearGradient id="SVGID_2_" gradientUnits="userSpaceOnUse" x1="780.7876" y1="700.2925" x2="1000.8015" y2="700.2925" gradientTransform="matrix(0 -1 1 -0.2586 -87.6958 1608.5773)">
			<stop  offset="0" style="stop-color:#D7D3D5"/>
			<stop  offset="0.9951" style="stop-color:#3D4458"/>
		</linearGradient>
		<path fill="url(#SVGID_2_)" d="M537.868,505.278l18.833,84.684l23.594,15.632l55.608,4.679
			c-14.049-8.258-22.855-19.839-23.703-35.813c-1.023-19.029,18.322-36.294,31.664-47.852c9.232-7.981,18.957-15.393,28.721-22.753
			c-14.1-22.326-2.025-43.081,11.094-56.868c1.957-2.05,3.111-3.924,3.646-5.663c-16.609-5.087-41.254-5.887-41.254-5.887
			L537.868,505.278z"/>
		
			<linearGradient id="SVGID_3_" gradientUnits="userSpaceOnUse" x1="763.3784" y1="700.2925" x2="983.3923" y2="700.2925" gradientTransform="matrix(0 -1 1 -0.2586 -87.6958 1608.5773)">
			<stop  offset="0" style="stop-color:#D7D3D5"/>
			<stop  offset="0.9951" style="stop-color:#3D4458"/>
		</linearGradient>
		<path fill="url(#SVGID_3_)" d="M537.868,505.278l18.833,84.684l23.594,15.632l55.608,4.679
			c-14.049-8.258-22.855-19.839-23.703-35.813c-1.023-19.029,18.322-36.294,31.664-47.852c9.232-7.981,18.957-15.393,28.721-22.753
			c-14.1-22.326-2.025-43.081,11.094-56.868c1.957-2.05,3.111-3.924,3.646-5.663c-16.609-5.087-41.254-5.887-41.254-5.887
			L537.868,505.278z"/>
		
			<linearGradient id="SVGID_4_" gradientUnits="userSpaceOnUse" x1="980.8179" y1="791.6919" x2="861.2618" y2="582.4689" gradientTransform="matrix(0 -1 1 -0.2586 -87.6958 1608.5773)">
			<stop  offset="0" style="stop-color:#1F74BB"/>
			<stop  offset="0.1387" style="stop-color:#1778BD"/>
			<stop  offset="0.3587" style="stop-color:#0084C4"/>
			<stop  offset="0.6323" style="stop-color:#0096CF"/>
			<stop  offset="0.9462" style="stop-color:#00B0DF"/>
			<stop  offset="1" style="stop-color:#00B6E3"/>
		</linearGradient>
		<path fill="url(#SVGID_4_)" d="M760.147,608.536c-67.59,11.808-207.298,21.703-331.028-73.479
			c-16.771-12.916-40.61-37.582-34.534-65.042c6.565-29.631,39.052-55.635,61.867-72.88c25.766-19.48,61.489-33.556,91.4-45.237
			c31.177-12.177,63.679-20.724,96.778-25.655c34.727-5.182,89.943-14.584,123.043,3.446c26.387,14.381-6.301,44.604-18.055,57.174
			c-27.605,29.524-58.047,56.097-89.559,81.381c-17.367,13.927-35.869,26.602-52.701,41.188
			c-13.333,11.549-32.692,28.816-31.674,47.835C578.655,612.878,677.833,615.527,760.147,608.536z"/>
		
			<radialGradient id="SVGID_5_" cx="867.0063" cy="702.0786" r="188.2476" gradientTransform="matrix(1.2461 0 0 0.192 -502.1531 474.1301)" gradientUnits="userSpaceOnUse">
			<stop  offset="0" style="stop-color:#9A9A99"/>
			<stop  offset="0.139" style="stop-color:#B0AFAF"/>
			<stop  offset="0.3473" style="stop-color:#CFCDCC"/>
			<stop  offset="0.5441" style="stop-color:#E7E5E5"/>
			<stop  offset="0.7232" style="stop-color:#F7F6F5"/>
			<stop  offset="0.8683" style="stop-color:#FFFFFF"/>
		</radialGradient>
	</g>
</g>
</svg>
